<?xml version="1.0" encoding="utf-8"?>
<!-- Generator: Adobe Illustrator 16.0.4, SVG Export Plug-In . SVG Version: 6.00 Build 0)  -->
<!DOCTYPE svg PUBLIC "-//W3C//DTD SVG 1.1//EN" "http://www.w3.org/Graphics/SVG/1.1/DTD/svg11.dtd">
<svg version="1.1" id="Capa_1" xmlns="http://www.w3.org/2000/svg" xmlns:xlink="http://www.w3.org/1999/xlink" x="0px" y="0px"
	 width="64px" height="64px" viewBox="0 0 64 64" enable-background="new 0 0 64 64" xml:space="preserve">
<path d="M61.881,20.002c-0.304-0.342-7.533-8.369-15.602-8.65c-4.262-0.146-7.145,0.713-8.891,1.531
	c-0.476-1.231-2.297-4.765-8.264-7.795c-2.144-1.088-4.774-1.64-7.821-1.64c-5.227,0-9.821,1.601-10.015,1.668
	c-0.18,0.064-0.305,0.231-0.314,0.422c-0.01,0.191,0.098,0.369,0.27,0.45c0.285,0.134,7.006,3.276,10.018,3.276
	c0.179,0,0.345-0.011,0.496-0.032c0.93-0.134,1.81-0.32,2.566-0.509l-1.03,0.801c-0.129,0.1-0.196,0.26-0.18,0.421
	c0.017,0.162,0.116,0.304,0.263,0.376l2.32,1.133c-0.73-0.066-1.48-0.105-2.246-0.118l-0.221-0.002
	c-9.066,0-17.58,8.546-17.938,8.91c-0.135,0.136-0.174,0.34-0.099,0.517c0.076,0.175,0.231,0.301,0.441,0.285
	c0.397-0.006,9.737-0.163,12.322-1.919c0.985-0.669,1.876-1.377,2.6-1.994l-0.79,1.607c-0.072,0.146-0.063,0.318,0.023,0.457
	c0.087,0.139,0.238,0.223,0.401,0.223H25c0.164,0,0.316-0.085,0.401-0.225l0.602-0.977l-0.059,0.538
	c-0.025,0.233,0.125,0.45,0.352,0.508c0.066,0.017,1.623,0.409,3.746,0.409c0.015,0,0.03,0,0.046-0.001
	c-3.263,1.816-6.128,4.436-8.636,7.461c-0.004,0.002-0.017,0.008-0.019,0.009l0.004,0.008c-3.755,4.534-6.703,9.989-8.924,15.102
	c-0.012,0.009-0.027,0.02-0.029,0.021l0.013,0.017c-3.694,8.512-5.394,16.043-5.536,16.684c-0.045,0.205,0.053,0.418,0.239,0.518
	c1.32,0.703,2.785,1.062,4.355,1.062c2.652,0,4.668-1.015,4.754-1.058c0.154-0.079,0.253-0.236,0.257-0.41
	c0.434-21.033,15.324-37.662,17.164-39.636c1.49,3.802,4.729,6.251,4.873,6.358c0.188,0.14,0.451,0.121,0.617-0.046l0.381-0.383
	l-0.381,1.082c-0.056,0.154-0.025,0.326,0.077,0.454l3.021,3.737c0.103,0.127,0.261,0.191,0.425,0.172
	c0.161-0.021,0.302-0.122,0.37-0.271l0.756-1.625c-0.026,0.951-0.018,2.089,0.082,3.277c0.258,3.112,6.007,10.478,6.251,10.789
	c0.118,0.149,0.313,0.215,0.5,0.163c0.184-0.053,0.317-0.211,0.341-0.4c0.059-0.515,1.374-12.698-4.484-19.721
	c-1.535-1.839-3.148-3.36-4.814-4.541c1.006-0.054,1.66-0.185,1.695-0.192c0.229-0.047,0.391-0.256,0.377-0.489l-0.014-0.224
	l0.364,0.664c0.078,0.144,0.226,0.237,0.39,0.245l4.223,0.214c0.009,0,0.017,0,0.025,0c0.004,0.001,0.006,0.001,0.008,0
	c0.262,0,0.473-0.211,0.473-0.472c0-0.099-0.03-0.19-0.082-0.266l-0.48-1.121c0.571,0.531,1.254,1.121,2.002,1.688
	c2.207,1.667,10.424,2.222,10.771,2.244c0.197,0.004,0.371-0.092,0.455-0.264C62.036,20.351,62.008,20.146,61.881,20.002z
	 M17.584,34.459c1.337-2.276,2.825-4.478,4.466-6.497c0.293-0.114,0.978-0.319,1.615-0.043c0.577,0.25,1.007,0.859,1.292,1.785
	c-1.139,1.868-2.289,3.936-3.375,6.173C20.459,34.618,18.848,34.357,17.584,34.459z M16.948,35.568
	c0.789-0.176,2.955-0.454,4.155,1.323c-0.812,1.743-1.578,3.583-2.268,5.508c-1.898-1.401-3.702-1.243-4.899-0.845
	C14.833,39.57,15.834,37.552,16.948,35.568z M10.294,50.858c0.839-0.386,3.901-1.593,6.225-0.049
	c-0.239,1.241-0.435,2.503-0.583,3.786c-2.848-1.008-5.465-0.487-6.802-0.072C9.455,53.439,9.842,52.203,10.294,50.858z
	 M10.724,49.604c0.723-2.067,1.596-4.347,2.615-6.702c0.697-0.425,2.824-1.41,5.145,0.492c-0.69,2.036-1.287,4.162-1.756,6.363
	C14.585,48.552,12.124,49.104,10.724,49.604z M11.558,59.607c-1.286,0-2.492-0.266-3.589-0.787c0.126-0.527,0.4-1.625,0.823-3.118
	c0.725-0.288,3.773-1.328,7.036-0.076c-0.097,1.036-0.167,2.082-0.196,3.142C15.04,59.02,13.463,59.607,11.558,59.607z
	 M25.62,28.636c-0.377-0.795-0.896-1.348-1.558-1.634c-0.35-0.151-0.698-0.208-1.024-0.215c2.691-3.066,5.771-5.612,9.269-7.166
	C30.971,21.139,28.375,24.281,25.62,28.636z M51.295,17.789c-2.054-1.552-3.623-3.341-3.639-3.358
	c-0.152-0.175-0.41-0.214-0.607-0.09c-0.195,0.124-0.273,0.373-0.182,0.586l1.205,2.805L44.87,17.57l-1.242-2.268
	c-0.106-0.193-0.331-0.288-0.544-0.227c-0.212,0.061-0.354,0.261-0.341,0.479l0.106,1.888c-0.52,0.072-1.496,0.171-2.666,0.115
	c-0.22-0.015-0.412,0.129-0.476,0.337c-0.062,0.207,0.026,0.431,0.213,0.541c2.048,1.208,4.038,2.958,5.912,5.205
	c4.551,5.455,4.536,14.522,4.362,17.79c-1.902-2.55-5.133-7.259-5.303-9.305c-0.244-2.922,0.084-5.614,0.086-5.641
	c0.028-0.23-0.115-0.448-0.338-0.512c-0.043-0.013-0.088-0.019-0.129-0.019c-0.181,0-0.35,0.104-0.43,0.273l-1.505,3.24l-2.38-2.944
	l0.99-2.805c0.074-0.209-0.006-0.44-0.192-0.558c-0.187-0.116-0.431-0.089-0.585,0.066l-1.561,1.564
	c-0.888-0.749-3.408-3.083-4.449-6.266c-0.077-0.241-0.332-0.379-0.58-0.306c-0.287,0.083-0.603,0.158-0.989,0.236
	c-0.063,0.014-0.122,0.04-0.173,0.074c-0.059-0.013-0.117-0.014-0.177-0.003c-0.773,0.132-1.594,0.199-2.44,0.199
	c-1.39,0-2.538-0.182-3.114-0.294l0.236-2.193c0.024-0.22-0.107-0.427-0.316-0.498c-0.209-0.07-0.438,0.012-0.555,0.2l-1.558,2.532
	h-3.785l1.575-3.208c0.103-0.208,0.038-0.46-0.152-0.593c-0.189-0.134-0.449-0.108-0.611,0.058c-0.019,0.02-1.907,1.967-4.332,3.614
	c-1.699,1.153-7.394,1.6-10.572,1.722c2.409-2.168,9.337-7.79,16.374-7.79l0.205,0.002c1.896,0.03,3.684,0.232,5.315,0.602
	c0.216,0.049,0.438-0.061,0.531-0.263c0.086-0.185,0.043-0.4-0.102-0.539l1.009-1.602c0.117-0.186,0.09-0.43-0.066-0.586
	c-0.157-0.155-0.4-0.182-0.586-0.065l-2.184,1.384l-2.881-1.407l2.411-1.873c0.184-0.143,0.236-0.397,0.123-0.602
	c-0.112-0.203-0.357-0.295-0.574-0.215c-0.022,0.009-2.261,0.816-4.808,1.182c-0.111,0.017-0.232,0.022-0.362,0.022
	c-2.103,0-6.425-1.775-8.481-2.676c1.69-0.476,4.989-1.253,8.521-1.253c2.898,0,5.385,0.518,7.394,1.538
	c6.787,3.446,7.914,7.585,7.923,7.625c0.007,0.025,0.027,0.084,0.039,0.109l0.025,0.062c0.051,0.121,0.15,0.216,0.274,0.261
	c0.123,0.045,0.261,0.035,0.379-0.026c1.572-0.826,4.438-1.823,8.907-1.667c6.117,0.214,11.938,5.35,14.07,7.451
	C57.512,19.487,52.699,18.85,51.295,17.789z"/>
</svg>
