<?xml version="1.0" encoding="utf-8"?>
<!-- Generator: Adobe Illustrator 16.0.4, SVG Export Plug-In . SVG Version: 6.00 Build 0)  -->
<!DOCTYPE svg PUBLIC "-//W3C//DTD SVG 1.1//EN" "http://www.w3.org/Graphics/SVG/1.1/DTD/svg11.dtd">
<svg version="1.1" id="Capa_1" xmlns="http://www.w3.org/2000/svg" xmlns:xlink="http://www.w3.org/1999/xlink" x="0px" y="0px"
	 width="23.301px" height="21.787px" viewBox="0 0 23.301 21.787" enable-background="new 0 0 23.301 21.787" xml:space="preserve">
<path d="M22.939,10.161c-0.705-1.712-2.037-2.581-3.961-2.581c0,0-1.263,0-2.306,0c0.39-0.881,0.824-2.159,0.824-3.699
	c0-0.422-0.033-0.86-0.113-1.306c-0.303-1.79-1.525-2.742-3.262-2.551c-0.688,0.079-0.924,0.732-1.494,2.315
	c-0.473,1.312-1.121,3.109-2.061,4.554c-0.691,1.062-1.922,1.9-2.956,2.416V9.178H0v11.307h7.612v-0.623
	c1.198-0.059,1.879-0.024,2.039,0.027l1.362,0.791l1.018,0.635c0.989,0.533,5.315,0.584,7.17,0.309
	c2.385-0.348,2.961-2.303,2.985-2.387C22.374,18.589,24.015,12.772,22.939,10.161z M20.749,18.826
	c-0.014,0.043-0.361,1.114-1.765,1.315c-1.996,0.297-5.698,0.117-6.247-0.145c0.004,0.003-0.903-0.566-0.903-0.566l-1.711-0.961
	c-0.397-0.133-1.297-0.148-2.511-0.094v-7.448c1.226-0.496,3.125-1.561,4.208-3.218c1.036-1.59,1.718-3.481,2.216-4.864
	c0,0,0.439-1.093,0.545-1.346c0.758,0.004,1.176,0.421,1.332,1.324c0.062,0.354,0.086,0.705,0.086,1.044
	c0,2.241-1.151,4.025-1.168,4.047l-0.759,1.157l4.906,0.002c1.312,0,2.106,0.511,2.579,1.657
	C22.301,12.535,21.221,17.188,20.749,18.826z"/>
</svg>
